<svg width="42" height="40" viewBox="0 0 42 40" fill="none" xmlns="http://www.w3.org/2000/svg">
<rect width="42" height="40" rx="10" fill="url(#paint0_linear_359_3042)"/>
<path d="M34.345 18.4728C34.5986 18.3609 34.8138 18.1771 34.964 17.9441C35.1141 17.7111 35.1926 17.4392 35.1898 17.162C35.1869 16.8848 35.1028 16.6146 34.9479 16.3847C34.7929 16.1549 34.5739 15.9755 34.3181 15.8689L22.1758 10.3383C21.8067 10.1699 21.4057 10.0828 21 10.0828C20.5943 10.0828 20.1933 10.1699 19.8242 10.3383L7.68332 15.8633C7.43111 15.9737 7.21655 16.1553 7.06589 16.3858C6.91523 16.6162 6.83499 16.8856 6.83499 17.1609C6.83499 17.4363 6.91523 17.7056 7.06589 17.9361C7.21655 18.1666 7.43111 18.3481 7.68332 18.4586L19.8242 23.9949C20.1933 24.1633 20.5943 24.2504 21 24.2504C21.4057 24.2504 21.8067 24.1633 22.1758 23.9949L34.345 18.4728Z" stroke="black" stroke-width="2" stroke-linecap="round" stroke-linejoin="round"/>
<path d="M35.1667 17.1667V25.6667" stroke="black" stroke-width="2" stroke-linecap="round" stroke-linejoin="round"/>
<path d="M12.5 20.7083V25.6666C12.5 26.7938 13.3955 27.8748 14.9896 28.6718C16.5837 29.4688 18.7457 29.9166 21 29.9166C23.2543 29.9166 25.4163 29.4688 27.0104 28.6718C28.6045 27.8748 29.5 26.7938 29.5 25.6666V20.7083" stroke="black" stroke-width="2" stroke-linecap="round" stroke-linejoin="round"/>
<defs>
<linearGradient id="paint0_linear_359_3042" x1="0" y1="0" x2="43.691" y2="38.0587" gradientUnits="userSpaceOnUse">
<stop stop-color="#3EB0DC"/>
<stop offset="1" stop-color="#DCC253"/>
</linearGradient>
</defs>
</svg>
